<?xml version="1.0" encoding="UTF-8"?>
<svg xmlns="http://www.w3.org/2000/svg" width="150" height="28" viewBox="0 0 150 28" fill="none">
  <g id="651af6daabb0e78f7ae22b83_Logotype V2 1" clip-path="url(#clip0_200_197)">
    <g id="Group">
      <g id="Group_2">
        <path id="Vector" d="M19.5366 20.2855H6.71604L4.02256 27.2003H0.105835L10.7386 0.329224H15.6551L26.2173 27.2003H22.23L19.5366 20.2855ZM18.1957 16.8282L13.1263 3.85715L8.05691 16.8282H18.1957Z" fill="black"></path>
        <path id="Vector_2" d="M28.6991 8.00831H32.3453V10.6895C33.498 8.96085 35.4151 7.62024 38.485 7.62024C42.8957 7.62024 45.3893 10.3015 45.3893 14.3351V27.2002H41.7431V15.1112C41.7431 12.43 40.5904 10.7013 37.8616 10.7013H37.5558C34.827 10.7013 32.3335 12.8181 32.3335 16.4636V27.2002H28.6873L28.6991 8.00831Z" fill="black"></path>
        <path id="Vector_3" d="M48.8356 17.6043C48.8356 11.6538 52.8699 7.62024 58.0452 7.62024C63.2322 7.62024 67.2548 11.6538 67.2548 17.6043C67.2548 23.5547 63.2204 27.5883 58.0452 27.5883C52.8699 27.5766 48.8356 23.5547 48.8356 17.6043ZM58.1981 24.5073C61.3032 24.5073 63.6086 22.0142 63.6086 17.6043C63.6086 13.1944 61.3032 10.7013 58.1981 10.7013H57.8923C54.7871 10.7013 52.4818 13.1944 52.4818 17.6043C52.4818 22.0142 54.7871 24.5073 57.8923 24.5073H58.1981Z" fill="black"></path>
        <path id="Vector_4" d="M70.8539 8.00831H74.5001V10.6895C75.6528 8.96085 77.5699 7.62024 80.2634 7.62024C83.0275 7.62024 85.3328 8.69038 86.6031 11.1952C88.0969 8.54926 90.5904 7.62024 92.9428 7.62024C97.3535 7.62024 99.8471 10.3015 99.8471 14.3351V27.2002H96.2009V15.1112C96.2009 12.43 95.0482 10.7013 92.3194 10.7013H92.0136C89.673 10.7013 87.1795 12.8181 87.1795 16.4636V27.2002H83.5332V15.1112C83.5332 12.43 82.3806 10.7013 79.6518 10.7013H79.346C77.0054 10.7013 74.5118 12.8181 74.5118 16.4636V27.2002H70.8656V8.00831H70.8539Z" fill="black"></path>
        <path id="Vector_5" d="M116.079 27.2003C115.89 26.236 115.89 24.3192 115.89 24.131C115.126 25.8597 112.82 27.5884 109.751 27.5884C106.104 27.5884 103.411 25.1659 103.411 21.9084C103.411 17.5338 107.292 16.2285 110.398 15.958L115.69 15.5346V14.9231C115.69 12.2419 114.15 10.7014 111.703 10.7014H111.397C109.398 10.7014 107.669 11.6657 107.445 13.5825H103.799C104.034 10.0546 107.21 7.63208 111.55 7.63208C116.655 7.63208 119.348 11.0071 119.348 14.9231V22.9786C119.348 24.131 119.348 25.8597 119.537 27.2003H116.079ZM115.69 20.2856V18.3335L110.892 18.7215C108.669 18.9097 107.057 19.9916 107.057 21.7556C107.057 23.3314 108.363 24.5191 110.162 24.5191H110.468C112.809 24.5073 115.69 22.5905 115.69 20.2856Z" fill="black"></path>
        <path id="Vector_6" d="M123.83 0.329224H127.476V27.2003H123.83V0.329224Z" fill="black"></path>
        <path id="Vector_7" d="M131.075 17.6043C131.075 11.6538 135.109 7.62024 140.285 7.62024C145.472 7.62024 149.494 11.6538 149.494 17.6043C149.494 23.5547 145.46 27.5883 140.285 27.5883C135.109 27.5766 131.075 23.5547 131.075 17.6043ZM140.438 24.5073C143.543 24.5073 145.848 22.0142 145.848 17.6043C145.848 13.1944 143.543 10.7013 140.438 10.7013H140.132C137.027 10.7013 134.721 13.1944 134.721 17.6043C134.721 22.0142 137.027 24.5073 140.132 24.5073H140.438Z" fill="black"></path>
      </g>
      <g id="Group_3">
        <path id="Vector_8" d="M142.837 16.1343V19.0743L140.296 20.5443L137.756 19.0743V16.1343L140.296 14.6644L142.837 16.1343Z" fill="#FF6E4D"></path>
      </g>
    </g>
  </g>
  <defs>
    <clipPath id="clip0_200_197">
      <rect width="150" height="28" fill="white"></rect>
    </clipPath>
  </defs>
</svg>
