<svg width="126" height="44" viewBox="0 0 126 44" fill="none" xmlns="http://www.w3.org/2000/svg">
<g clip-path="url(#clip0_12648_3238)">
<mask id="mask0_12648_3238" style="mask-type:luminance" maskUnits="userSpaceOnUse" x="0" y="-1" width="126" height="46">
<path d="M126 -0.0749512H0V44.0089H126V-0.0749512Z" fill="white"/>
</mask>
<g mask="url(#mask0_12648_3238)">
<path d="M62.6167 19.3083C62.4527 16.964 61.3698 14.7834 59.6045 13.2314C57.8786 11.6336 55.6014 10.7627 53.252 10.815C51.9658 10.7888 50.6927 11.0442 49.518 11.555C48.3433 12.0658 47.2867 12.8254 46.4336 13.7815V1.17579C46.4336 0.337598 46.0136 -0.0749512 45.1802 -0.0749512C44.3467 -0.0749512 43.9727 0.337598 43.9727 1.17579V28.2469C43.9727 29.0785 44.3861 29.4976 45.1802 29.4976C45.9677 29.4976 46.4336 29.0785 46.4336 28.2469V19.3083C46.5977 18.0379 47.1161 16.833 47.9298 15.8377C48.737 14.8423 49.8133 14.0892 51.0208 13.6636C52.2348 13.2379 53.5408 13.1594 54.7942 13.4344C56.0477 13.7094 57.2027 14.325 58.1214 15.2221C58.7842 15.8311 59.3027 16.5645 59.657 17.3896C60.0114 18.2147 60.182 19.1053 60.1623 19.9959V28.2469C60.1623 29.0392 60.5823 29.4518 61.4158 29.4518C61.5798 29.4714 61.7439 29.4518 61.9014 29.3994C62.0589 29.347 62.1967 29.2553 62.3148 29.144C62.433 29.0261 62.5183 28.8886 62.5708 28.7315C62.6233 28.5743 62.643 28.4106 62.6233 28.2469V19.3083H62.6167Z" fill="#EC1562"/>
<path d="M23.1576 20.1924C23.1379 19.2887 23.3086 18.3916 23.6498 17.5534C23.9911 16.7152 24.5029 15.9556 25.1526 15.3269C25.7892 14.6721 26.557 14.1547 27.4036 13.8011C28.2501 13.4475 29.1558 13.2773 30.0679 13.2838C31.8989 13.2969 33.6445 14.0303 34.9373 15.3204C36.2301 16.6104 36.9651 18.3654 36.9783 20.1924C36.9914 21.1091 36.8142 22.0128 36.4598 22.8576C36.112 23.7023 35.5936 24.4685 34.9373 25.1037C34.3073 25.752 33.5461 26.2627 32.7061 26.6098C31.8661 26.9503 30.967 27.1206 30.0614 27.1009C29.1492 27.114 28.2436 26.9438 27.4036 26.6033C26.557 26.2627 25.7892 25.752 25.1461 25.1102C24.5029 24.4685 23.9911 23.6958 23.6498 22.851C23.3151 22.0063 23.1445 21.1026 23.1576 20.1924ZM20.7033 20.1924C20.6967 21.4235 20.9395 22.648 21.4054 23.7874C21.8779 24.9269 22.567 25.9681 23.4398 26.839C24.3126 27.7099 25.3495 28.4041 26.4914 28.869C27.6333 29.3405 28.8539 29.5762 30.0876 29.5697C31.3214 29.6024 32.542 29.3798 33.6839 28.9148C34.8258 28.4499 35.8561 27.7558 36.7223 26.8783C37.6083 26.0074 38.3104 24.9727 38.7829 23.8202C39.2554 22.6742 39.4851 21.4366 39.4589 20.1989C39.4654 18.9678 39.2226 17.7433 38.7567 16.6038C38.2908 15.4644 37.5951 14.4298 36.7223 13.5523C35.8495 12.6814 34.8126 11.9872 33.6708 11.5223C32.5289 11.0508 31.3083 10.8151 30.0745 10.8151C28.8408 10.8151 27.6267 11.0508 26.4848 11.5223C25.3495 11.9938 24.3126 12.6814 23.4464 13.5523C22.5736 14.4232 21.8845 15.4579 21.4186 16.5973C20.9395 17.7433 20.7033 18.9613 20.7033 20.1924Z" fill="#039EC3"/>
<path d="M-0.00183292 20.1923C-0.0280829 21.43 0.195042 22.6611 0.660981 23.8136C1.12036 24.9661 1.81598 26.0073 2.68879 26.8848C3.56817 27.7623 4.61161 28.4499 5.76004 28.9148C6.90848 29.3797 8.14223 29.6024 9.38254 29.5762C10.7279 29.6024 12.06 29.3208 13.2807 28.7576C14.5013 28.1945 15.5775 27.3628 16.4307 26.3282C16.6275 26.0925 16.7588 25.8043 16.7916 25.4965C16.7916 24.8941 16.0697 24.2458 15.4922 24.2458C15.3085 24.2589 15.1379 24.3113 14.9738 24.3964C14.8163 24.4815 14.6719 24.5994 14.5604 24.7435C13.9238 25.5031 13.1297 26.1055 12.2307 26.5181C11.3316 26.9306 10.3538 27.1336 9.36286 27.114C8.45067 27.1271 7.54504 26.9568 6.70504 26.6163C5.85848 26.2758 5.09067 25.765 4.44754 25.1233C3.80442 24.4815 3.29254 23.7088 2.95129 22.8706C2.61004 22.0259 2.43942 21.1222 2.45254 20.212C2.43286 19.3083 2.60348 18.4046 2.95129 17.5664C3.29911 16.7282 3.81098 15.9686 4.46067 15.34C5.09723 14.6851 5.86504 14.1678 6.70504 13.8142C7.55161 13.4606 8.45723 13.2903 9.36942 13.2969C10.321 13.2772 11.266 13.4671 12.1388 13.8535C13.0116 14.2398 13.7925 14.803 14.4225 15.5233C14.521 15.6608 14.6588 15.7787 14.8097 15.8573C14.9607 15.9359 15.1313 15.9817 15.3019 15.9883C15.63 15.9359 15.9254 15.7787 16.1616 15.5495C16.3979 15.3138 16.5488 15.0191 16.6013 14.6917C16.5816 14.3774 16.4504 14.0827 16.2404 13.86C15.3807 12.8974 14.3241 12.1247 13.1429 11.6008C11.9616 11.0835 10.6754 10.8216 9.38254 10.8412C8.14879 10.8216 6.92161 11.0573 5.78629 11.5288C4.64442 11.9741 3.61411 12.6748 2.75442 13.5588C1.86848 14.4166 1.17286 15.4513 0.700356 16.5907C0.227855 17.7301 -0.00183292 18.9547 0.0178546 20.1923" fill="#039EC3"/>
<path d="M72.6755 14.1613C74.303 13.3427 76.1799 13.1921 77.919 13.7422C80.6096 14.5738 82.1846 16.3812 82.6439 19.125H69.0661C69.2236 18.0707 69.6305 17.0622 70.2605 16.1978C70.8905 15.34 71.7174 14.6393 72.6755 14.1613ZM67.7996 15.4775C66.9136 16.9509 66.4477 18.6338 66.4543 20.3495C66.4346 21.5806 66.6708 22.8052 67.1368 23.9446C67.6093 25.084 68.3049 26.1186 69.1908 26.9765C70.0571 27.854 71.0874 28.5481 72.2293 29.013C73.3711 29.4845 74.5918 29.7203 75.819 29.7072C77.5777 29.7203 79.3036 29.216 80.7802 28.2665C80.9639 28.1748 81.1149 28.0308 81.233 27.8605C81.3446 27.6903 81.4168 27.4938 81.4299 27.2908C81.4299 26.6884 80.8261 25.9025 80.2683 25.9025C79.9861 25.9156 79.7105 26.0139 79.4808 26.1776C78.3849 26.8717 77.1118 27.245 75.8124 27.2581C72.984 27.2581 70.9365 26.0073 69.6765 23.4993C69.3811 22.8968 69.158 22.2616 69.0268 21.6002H83.963C84.7505 21.6002 85.1705 21.1811 85.1705 20.3495C85.1902 18.3588 84.5733 16.4139 83.4052 14.7965C82.2371 13.1856 80.5768 11.9937 78.6736 11.3978C77.7352 11.1097 76.764 10.9722 75.7861 10.9787C72.2621 10.9787 69.5714 12.4652 67.7602 15.4775" fill="#EC1562"/>
<path d="M109.733 14.1612C111.36 13.3427 113.237 13.1921 114.976 13.7421C117.667 14.5738 119.242 16.3811 119.708 19.1249H106.117C106.274 18.0706 106.681 17.0622 107.311 16.1978C107.941 15.3334 108.768 14.6327 109.726 14.1612H109.733ZM104.87 15.4774C103.984 16.9508 103.518 18.6338 103.525 20.3495C103.505 21.5806 103.741 22.7986 104.207 23.938C104.673 25.0774 105.369 26.1055 106.248 26.9633C107.114 27.8408 108.151 28.535 109.293 29.0064C110.435 29.4779 111.656 29.7137 112.889 29.7006C114.648 29.7071 116.374 29.2094 117.851 28.2599C118.034 28.1683 118.185 28.0242 118.303 27.8539C118.415 27.6837 118.487 27.4872 118.5 27.2842C118.5 26.6818 117.896 25.896 117.339 25.896C117.056 25.9091 116.781 26.0073 116.551 26.171C115.455 26.8651 114.189 27.2384 112.889 27.2515C110.061 27.2515 108.013 26.0007 106.753 23.4927C106.451 22.8902 106.235 22.255 106.104 21.5937H121.046C121.834 21.5937 122.254 21.1746 122.254 20.3429C122.274 18.3522 121.657 16.4073 120.489 14.7899C119.321 13.179 117.66 11.9871 115.757 11.3912C114.819 11.1031 113.847 10.9656 112.87 10.9721C109.346 10.9721 106.655 12.4586 104.844 15.4709" fill="#EC1562"/>
<path d="M103.847 11.6008L97.7114 8.64092L97.5408 8.55579L97.7376 10.8281C95.4998 11.1293 93.4523 12.2425 91.9823 13.9517C90.5123 15.6608 89.7117 17.848 89.738 20.1006V28.3582C89.7183 28.5219 89.738 28.6856 89.7905 28.8427C89.843 28.9999 89.9348 29.1374 90.0464 29.2553C90.1645 29.3732 90.3023 29.4583 90.4598 29.5107C90.6173 29.5631 90.7814 29.5827 90.9389 29.5631C91.7723 29.5631 92.1923 29.144 92.1923 28.3582V20.1006C92.1726 19.1969 92.3433 18.2933 92.6845 17.4551C93.0258 16.6169 93.5376 15.8573 94.1873 15.2221C95.198 14.1874 96.517 13.5064 97.9476 13.2772L98.1708 15.8376L103.847 11.6008Z" fill="#EC1562"/>
<path d="M122.257 44.0221V37.0808H120.702V39.9031H118.267V37.0808H116.712V44.0221H118.267V41.3962H120.715V44.0221H122.257ZM107.885 38.5083V37.0677H101.835V38.5083H104.079V44.0221H105.647V38.5083H107.885ZM94.058 44.0221V42.5487H90.4486V37.0873H88.9064V44.0286H94.058V44.0221ZM77.4286 41.3176H75.7289L76.582 39.1501L77.4286 41.3176ZM79.9814 44.0221L77.2317 37.0611H76.0439L73.1564 44.0221H74.6723L75.2105 42.7255H77.9667L78.4458 44.0221H79.9814ZM64.3627 44.0221V42.5814H60.937V41.2652H63.7392V39.8769H60.9305C60.9305 39.412 60.9305 38.9536 60.9305 38.4952H64.2445V37.0546H59.3948V43.9959L64.3627 44.0221ZM50.1417 44.0221V37.0808H48.5864V39.9031H46.1517V37.0808H44.5898V44.0221H46.1452V41.3962H48.5864V44.0221H50.1417Z" fill="#6D6F72"/>
</g>
</g>
<defs>
<clipPath id="clip0_12648_3238">
<rect width="126" height="44" fill="white"/>
</clipPath>
</defs>
</svg>
