<?xml version="1.0" encoding="utf-8"?>
<!-- Generator: Adobe Illustrator 28.0.0, SVG Export Plug-In . SVG Version: 6.00 Build 0)  -->
<svg version="1.1" id="Layer_1" xmlns="http://www.w3.org/2000/svg" xmlns:xlink="http://www.w3.org/1999/xlink" x="0px" y="0px"
	 viewBox="0 0 500 126.89" style="enable-background:new 0 0 500 126.89;" xml:space="preserve">
<style type="text/css">
	.st0{fill:#00AB5D;}
	.st1{fill:#0B6470;}
	.st2{fill:#FFFFFF;}
</style>
<g>
	<path class="st0" d="M478.64,59.78c0,4.76-3.85,8.61-8.61,8.61c-4.76,0-8.61-3.85-8.61-8.61c0-4.76,3.85-8.61,8.61-8.61
		C474.79,51.17,478.64,55.02,478.64,59.78"/>
	<path class="st1" d="M457.44,69.63c0,3.21-2.6,5.82-5.82,5.82s-5.82-2.6-5.82-5.82s2.61-5.82,5.82-5.82S457.44,66.41,457.44,69.63"
		/>
	<path class="st1" d="M457.44,49.93c0,3.21-2.6,5.82-5.82,5.82s-5.82-2.6-5.82-5.82c0-3.21,2.61-5.82,5.82-5.82
		S457.44,46.72,457.44,49.93"/>
	<path class="st1" d="M439.98,79.92c0,2.23-1.8,4.03-4.03,4.03c-2.22,0-4.03-1.8-4.03-4.03c0-2.23,1.8-4.03,4.03-4.03
		C438.17,75.89,439.98,77.7,439.98,79.92"/>
	<path class="st1" d="M439.98,39.63c0,2.23-1.8,4.03-4.03,4.03c-2.22,0-4.03-1.8-4.03-4.03c0-2.23,1.8-4.03,4.03-4.03
		C438.17,35.61,439.98,37.41,439.98,39.63"/>
	<path class="st1" d="M423.41,89.32c0,1.48-1.2,2.69-2.69,2.69c-1.48,0-2.69-1.2-2.69-2.69c0-1.48,1.2-2.69,2.69-2.69
		C422.21,86.64,423.41,87.84,423.41,89.32"/>
	<path class="st1" d="M423.41,29.79c0,1.48-1.2,2.69-2.69,2.69c-1.48,0-2.69-1.2-2.69-2.69c0-1.48,1.2-2.69,2.69-2.69
		C422.21,27.1,423.41,28.3,423.41,29.79"/>
	<path class="st1" d="M441.54,59.78c0,3.09-2.5,5.59-5.59,5.59s-5.59-2.5-5.59-5.59s2.5-5.59,5.59-5.59S441.54,56.69,441.54,59.78"
		/>
	<polygon class="st1" points="22.75,20.93 56.13,20.93 56.13,31.08 33.66,31.08 33.66,46.26 55.55,46.26 55.55,56.49 33.66,56.49 
		33.66,82.49 22.75,82.49 	"/>
	<path class="st1" d="M78.36,38.13h5.37v9.39h-4.36c-3.77,0-5.28,1.51-5.28,5.37v29.61h-10.4V53.14
		C63.68,42.74,68.88,38.13,78.36,38.13"/>
	<path class="st1" d="M88.42,60.44c0-13.59,9.73-23.23,22.56-23.23c11.74,0,22.31,7.97,21.3,25.41H98.15
		c0.84,7.05,6.12,11.91,13.67,11.91c5.54,0,10.23-2.6,13.5-7.38l6.88,5.45c-4.36,6.29-11.24,10.9-20.63,10.9
		C97.73,83.5,88.42,73.77,88.42,60.44 M122.47,55.15c-1.26-6.21-5.7-9.39-11.57-9.39c-6.21,0-10.9,3.86-12.41,9.39H122.47z"/>
	<path class="st1" d="M140.08,60.44c0-13.59,9.73-23.23,22.56-23.23c11.74,0,22.31,7.97,21.3,25.41h-34.14
		c0.84,7.05,6.12,11.91,13.67,11.91c5.54,0,10.23-2.6,13.5-7.38l6.88,5.45c-4.36,6.29-11.24,10.9-20.63,10.9
		C149.39,83.5,140.08,73.77,140.08,60.44 M174.14,55.15c-1.26-6.21-5.7-9.39-11.57-9.39c-6.21,0-10.9,3.86-12.41,9.39H174.14z"/>
	<path class="st1" d="M210.28,37.12c11.49,0,18.45,7.13,18.45,18.96v26.42h-10.4V56.41c0-6.21-2.94-9.56-8.05-9.56
		c-5.2,0-8.05,3.36-8.05,9.56v26.09h-10.4V56.07C191.83,44.25,198.71,37.12,210.28,37.12"/>
	<path class="st1" d="M236.28,60.35c0-13.5,10.23-23.23,23.23-23.23c13,0,23.23,9.73,23.23,23.23s-10.23,23.32-23.23,23.32
		C246.51,83.67,236.28,73.86,236.28,60.35 M259.51,73.86c7.3,0,12.83-5.54,12.83-13.5s-5.54-13.5-12.83-13.5
		c-7.3,0-12.83,5.54-12.83,13.5S252.22,73.86,259.51,73.86"/>
	<path class="st1" d="M307.32,37.12c6.29,0,10.9,2.52,13.42,6.46c2.52-3.94,7.13-6.46,13.5-6.46c10.57,0,17.03,7.04,17.03,18.96
		v26.42h-10.4V55.82c0-5.62-2.68-8.98-7.3-8.98c-4.78,0-7.55,3.36-7.55,9.31v26.34h-10.4V56.16c0-5.96-2.85-9.31-7.55-9.31
		c-4.7,0-7.3,3.36-7.3,8.98v26.67h-10.4V56.07C290.38,44.16,296.75,37.12,307.32,37.12"/>
	<path class="st1" d="M358.81,60.44c0-13.59,9.73-23.23,22.56-23.23c11.74,0,22.31,7.97,21.3,25.41h-34.14
		c0.84,7.05,6.12,11.91,13.67,11.91c5.53,0,10.23-2.6,13.5-7.38l6.88,5.45c-4.36,6.29-11.24,10.9-20.63,10.9
		C368.12,83.5,358.81,73.77,358.81,60.44 M392.86,55.15c-1.26-6.21-5.7-9.39-11.57-9.39c-6.21,0-10.9,3.86-12.41,9.39H392.86z"/>
</g>
</svg>
