<?xml version="1.0" encoding="UTF-8"?>
<svg xmlns="http://www.w3.org/2000/svg" width="242" height="69" viewBox="0 0 242 69" fill="none">
  <path d="M-0.000167972 10.8711C-0.0113166 9.39467 0.268664 7.93036 0.823915 6.56115C1.35115 5.25868 2.13173 4.0727 3.12083 3.07129C4.12965 2.09013 5.3207 1.31375 6.62757 0.785427C7.93055 0.259559 9.32442 -0.0072031 10.7304 0.000207308H68.3812C69.8755 -0.00899088 71.3556 0.287993 72.7296 0.872673C74.0384 1.42089 75.229 2.21474 76.2363 3.21088C78.1915 5.20735 79.2754 7.89145 79.2521 10.6792V32.2466C79.2823 33.7581 78.9832 35.2582 78.3754 36.6438C77.8269 37.9176 77.0349 39.0732 76.0434 40.0464C75.0622 40.9824 73.9226 41.7386 72.677 42.2799C71.3911 42.8254 70.007 43.1044 68.6092 43.1H59.8423L79.445 68.0526H62.0866L41.9755 43.0302H22.2501V29.2453H64.8745V13.7852H14.3424V68.0526H-0.000167972V10.8711Z" fill="black"></path>
  <path d="M168.604 10.8706C168.593 9.39418 168.873 7.92987 169.428 6.56066C169.962 5.26153 170.741 4.0767 171.725 3.0708C172.725 2.0821 173.913 1.30138 175.219 0.774128C176.526 0.246874 177.925 -0.0163751 179.334 -0.000280735H241.965V13.7847H183.052V26.3307H234.197V40.1331H183.052V54.2147H241.965V68.0521H179.825C178.32 68.0596 176.829 67.7628 175.442 67.1796C174.14 66.6193 172.951 65.8269 171.935 64.8414C170.913 63.8453 170.097 62.6597 169.533 61.3515C168.953 60.0677 168.655 58.6759 168.656 57.2684L168.604 10.8706Z" fill="black"></path>
  <path d="M160.398 57.3028C160.409 58.7112 160.109 60.1049 159.521 61.386C158.97 62.6969 158.159 63.8838 157.137 64.8758C156.118 65.8575 154.93 66.6494 153.63 67.214C152.237 67.7973 150.74 68.094 149.229 68.0865H87.002V54.1969H145.968V40.1327H94.822V26.3477H145.968V13.7842H87.002V-0.000728308H149.667C151.105 -0.0105024 152.531 0.26843 153.858 0.81939C155.142 1.35356 156.307 2.13604 157.285 3.12148C158.263 4.10692 159.035 5.27574 159.556 6.56022C160.12 7.9269 160.4 9.39294 160.38 10.8702L160.398 57.3028Z" fill="black"></path>
</svg>
