<?xml version="1.0" encoding="UTF-8"?> <svg xmlns="http://www.w3.org/2000/svg" width="1696" height="1168" viewBox="0 0 1696 1168" fill="none"><g clip-path="url(#clip0_16_106)"><path d="M862.141 701.598C862.489 696.632 862.701 691.592 862.701 686.506C862.701 579.027 775.04 491.937 666.894 491.937C653.373 491.937 640.186 493.291 627.438 495.879C602.745 500.92 579.701 510.595 559.308 523.941C571.299 510.339 581.957 495.533 591.132 479.764C615.402 438.22 629.316 389.92 629.316 338.416C629.316 182.652 502.229 56.3049 345.453 56.3049C188.677 56.3049 61.5599 182.652 61.5599 338.431C61.5599 352.469 62.5894 366.282 64.5879 379.764C65.2692 382.683 65.9051 385.617 66.5107 388.581C67.0709 391.636 67.7068 394.69 68.3427 397.699C75.1254 431.75 80.1974 466.388 83.5282 501.537C86.6471 534.263 88.2217 567.426 88.2217 600.965C88.2217 768.811 72.052 872.558 3.19457 1008.91C2.42242 1010.43 1.66542 1012.01 0.847849 1013.58C0.545046 1013.67 0.257383 1013.74 0 1013.92C0.681307 1012.43 1.36261 1010.96 1.96822 1009.47C57.8959 884.4 66.5107 795.609 66.5107 644.721C66.5107 560.61 56.5333 478.816 37.6687 400.468C37.2902 398.858 36.8966 397.248 36.5181 395.683C31.5218 374.016 28.6755 351.506 28.2818 328.349C27.9336 307.57 29.5687 287.227 33.0207 267.515C33.1115 267.094 33.1418 266.673 33.2326 266.237C59.7733 117.109 189.585 2.67851 347.648 0.0453368C527.044 -2.964 674.903 139.152 677.931 317.44C678.748 365.695 668.892 411.603 650.497 453.026C664.698 449.46 679.596 447.594 694.903 447.594C795.676 447.594 877.357 528.831 877.357 628.967C877.357 654.787 871.937 679.374 862.126 701.598H862.141Z" fill="#B51F29"></path><path d="M507.498 977.103C447.604 967.352 386.044 962.643 323.288 963.455C189.676 965.155 104.558 972.829 0.847849 1013.58C0.545046 1013.67 0.257383 1013.74 0 1013.92C0.590466 1012.64 1.15065 1011.38 1.71084 1010.1C92.0673 969.053 192.492 946.212 298.337 946.212C371.115 946.212 441.336 957.03 507.498 977.118V977.103Z" fill="#B51F29"></path><path d="M172.568 921.279C142.09 913.335 117.351 902.742 98.3051 889.486L135.429 806.608C153.324 818.345 174.082 827.809 197.685 834.986C221.289 842.179 244.529 845.775 267.375 845.775C310.782 845.775 332.493 834.986 332.493 813.41C332.493 802.049 326.301 793.638 313.931 788.146C301.547 782.669 281.652 776.891 254.234 770.827C224.15 764.402 199.017 757.481 178.836 750.108C158.654 742.735 141.318 730.908 126.859 714.628C112.385 698.362 105.148 676.409 105.148 648.769C105.148 624.558 111.81 602.695 125.149 583.195C138.472 563.709 158.366 548.287 184.846 536.926C211.311 525.566 243.772 519.893 282.243 519.893C308.511 519.893 334.416 522.828 359.927 528.696C385.438 534.564 407.906 543.171 427.331 554.531L392.493 637.98C354.416 617.547 317.474 607.33 281.683 607.33C259.215 607.33 242.833 610.64 232.553 617.261C222.273 623.881 217.125 632.503 217.125 643.096C217.125 653.689 223.211 661.648 235.399 666.945C247.587 672.256 267.193 677.733 294.234 683.406C324.696 689.846 349.934 696.752 369.919 704.125C389.92 711.513 407.24 723.235 421.896 739.32C436.551 755.404 443.894 777.267 443.894 804.893C443.894 828.742 437.233 850.304 423.894 869.609C410.556 888.914 390.571 904.337 363.909 915.878C337.247 927.418 304.877 933.196 266.8 933.196C234.43 933.196 203.014 929.224 172.552 921.279H172.568Z" fill="#2C3891"></path><path d="M749.498 848.047H580.413L548.997 925.252H433.614L610.118 527.868H721.504L898.583 925.252H780.914L749.498 848.047ZM716.372 765.17L664.956 638.01L613.54 765.17H716.356H716.372Z" fill="#2C3891"></path><path d="M1091.09 819.669H1029.39V925.267H916.297V527.883H1099.08C1135.25 527.883 1166.67 533.842 1193.33 545.759C1219.98 557.676 1240.54 574.709 1255.03 596.857C1269.5 618.991 1276.74 645.022 1276.74 674.92C1276.74 704.817 1269.97 728.757 1256.47 750.138C1242.95 771.519 1223.63 788.266 1198.49 800.379L1284.75 925.267H1163.64L1091.09 819.669ZM1144.78 631.766C1132.97 621.549 1115.45 616.433 1092.23 616.433H1029.39V732.804H1092.23C1115.45 732.804 1132.97 727.794 1144.78 717.758C1156.57 707.736 1162.49 693.442 1162.49 674.905C1162.49 656.367 1156.59 641.982 1144.78 631.766Z" fill="#2C3891"></path><path d="M1411.24 906.804C1377.92 889.2 1351.74 864.704 1332.7 833.286C1313.65 801.884 1304.14 766.298 1304.14 726.56C1304.14 686.822 1313.65 651.251 1332.7 619.834C1351.73 588.416 1377.91 563.92 1411.24 546.316C1444.57 528.711 1482.16 519.924 1524.05 519.924C1560.62 519.924 1593.55 526.364 1622.87 539.229C1652.2 552.093 1676.58 570.646 1695.98 594.856L1624.01 659.572C1598.1 628.546 1566.69 613.018 1529.76 613.018C1508.05 613.018 1488.72 617.757 1471.79 627.207C1454.85 636.671 1441.71 650.017 1432.38 667.231C1423.04 684.459 1418.39 704.231 1418.39 726.56C1418.39 748.889 1423.05 768.661 1432.38 785.889C1441.71 803.118 1454.85 816.449 1471.79 825.913C1488.73 835.378 1508.07 840.102 1529.76 840.102C1566.69 840.102 1598.12 824.589 1624.01 793.548L1695.98 858.264C1676.56 882.489 1652.18 901.041 1622.87 913.891C1593.55 926.756 1560.62 933.196 1524.05 933.196C1482.16 933.196 1444.55 924.394 1411.24 906.804Z" fill="#2C3891"></path><path d="M1057.28 1131.27L1056.84 1050.65L1017.49 1116.27H998.251L959.114 1052.82V1131.26H919.098V979.149H954.738L1008.53 1066.93L1061.01 979.149H1096.65L1097.09 1131.26H1057.3L1057.28 1131.27Z" fill="#B51F29"></path><path d="M1240.72 1082.82H1154.57C1156.33 1088.9 1159.71 1093.58 1164.75 1096.84C1169.77 1100.11 1176.07 1101.73 1183.66 1101.73C1189.33 1101.73 1194.26 1100.94 1198.42 1099.34C1202.57 1097.75 1206.76 1095.14 1210.99 1091.52L1232.85 1114.12C1221.33 1126.86 1204.49 1133.24 1182.34 1133.24C1168.49 1133.24 1156.31 1130.64 1145.82 1125.42C1135.33 1120.2 1127.2 1112.96 1121.45 1103.69C1115.69 1094.42 1112.82 1083.92 1112.82 1072.18C1112.82 1060.45 1115.62 1050.2 1121.23 1041.01C1126.85 1031.81 1134.6 1024.6 1144.52 1019.38C1154.44 1014.16 1165.58 1011.56 1177.98 1011.56C1190.38 1011.56 1200.51 1013.98 1210.12 1018.84C1219.74 1023.7 1227.35 1030.73 1232.97 1039.92C1238.59 1049.13 1241.39 1060.02 1241.39 1072.63C1241.39 1072.92 1241.17 1076.34 1240.74 1082.85L1240.72 1082.82ZM1162.11 1046.32C1157.81 1049.94 1155.07 1054.86 1153.91 1061.09H1202.45C1201.28 1054.86 1198.54 1049.94 1194.24 1046.32C1189.94 1042.69 1184.58 1040.89 1178.18 1040.89C1171.77 1040.89 1166.4 1042.71 1162.1 1046.32H1162.11Z" fill="#B51F29"></path><path d="M1381.1 970.046V1131.29H1341.52V1119.55C1333.8 1128.68 1322.2 1133.24 1306.76 1133.24C1295.97 1133.24 1286.14 1130.74 1277.24 1125.75C1268.35 1120.75 1261.31 1113.62 1256.13 1104.35C1250.96 1095.08 1248.37 1084.36 1248.37 1072.2C1248.37 1060.04 1250.96 1049.34 1256.13 1040.15C1261.31 1030.95 1268.34 1023.88 1277.24 1018.96C1286.13 1014.04 1295.97 1011.57 1306.76 1011.57C1320.9 1011.57 1331.83 1015.64 1339.56 1023.75V970.076H1381.1V970.046ZM1333.21 1092.93C1337.87 1087.94 1340.21 1081.02 1340.21 1072.18C1340.21 1063.35 1337.91 1056.68 1333.32 1051.75C1328.73 1046.83 1322.78 1044.36 1315.5 1044.36C1308.22 1044.36 1302.23 1046.83 1297.57 1051.75C1292.91 1056.67 1290.58 1063.49 1290.58 1072.18C1290.58 1080.88 1292.91 1087.94 1297.57 1092.93C1302.23 1097.93 1308.22 1100.43 1315.5 1100.43C1322.78 1100.43 1328.55 1097.93 1333.21 1092.93Z" fill="#B51F29"></path><path d="M1404.72 994.165C1400.06 989.967 1397.72 984.746 1397.72 978.517C1397.72 972.288 1400.06 967.081 1404.72 962.868C1409.38 958.67 1415.5 956.564 1423.08 956.564C1430.67 956.564 1436.79 958.565 1441.45 962.537C1446.11 966.525 1448.44 971.626 1448.44 977.855C1448.44 984.084 1446.11 989.772 1441.45 994.045C1436.79 998.318 1430.65 1000.46 1423.08 1000.46C1415.51 1000.46 1409.38 998.364 1404.72 994.15V994.165ZM1402.31 1013.5H1443.86V1131.27H1402.31V1013.5Z" fill="#2C3891"></path><path d="M1637.35 1148.88C1632.24 1155.1 1626.01 1159.84 1618.65 1163.11C1611.29 1166.37 1603.24 1168 1594.49 1168C1585.73 1168 1578.38 1166.92 1571.53 1164.73C1564.67 1162.57 1557.79 1158.97 1550.87 1153.98C1543.95 1148.98 1536.18 1141.98 1527.58 1133C1514.32 1130.83 1502.51 1126.12 1492.15 1118.87C1481.8 1111.64 1473.74 1102.5 1467.99 1091.49C1462.24 1080.47 1459.36 1068.38 1459.36 1055.19C1459.36 1040.13 1463.04 1026.59 1470.4 1014.55C1477.75 1002.53 1487.88 993.112 1500.78 986.311C1513.68 979.51 1528.22 976.094 1544.4 976.094C1560.59 976.094 1575.12 979.495 1588.02 986.311C1600.92 993.127 1611.05 1002.53 1618.41 1014.55C1625.76 1026.58 1629.44 1040.12 1629.44 1055.19C1629.44 1072.29 1624.74 1087.39 1615.33 1100.5C1605.93 1113.61 1593.29 1123 1577.39 1128.64C1580.3 1131.83 1583.19 1134.07 1586.02 1135.38C1588.87 1136.69 1591.96 1137.33 1595.32 1137.33C1603.92 1137.33 1611.64 1133.78 1618.5 1126.68L1637.3 1148.85L1637.35 1148.88ZM1508.56 1077.93C1512.21 1084.52 1517.16 1089.64 1523.43 1093.25C1529.7 1096.87 1536.7 1098.68 1544.42 1098.68C1552.14 1098.68 1559.13 1096.87 1565.4 1093.25C1571.67 1089.62 1576.62 1084.52 1580.27 1077.93C1583.92 1071.34 1585.73 1063.77 1585.73 1055.22C1585.73 1046.68 1583.9 1039.11 1580.27 1032.52C1576.62 1025.93 1571.67 1020.83 1565.4 1017.2C1559.13 1013.58 1552.14 1011.77 1544.42 1011.77C1536.7 1011.77 1529.69 1013.59 1523.43 1017.2C1517.16 1020.83 1512.2 1025.93 1508.56 1032.52C1504.92 1039.11 1503.1 1046.68 1503.1 1055.22C1503.1 1063.77 1504.92 1071.34 1508.56 1077.93Z" fill="#2C3891"></path></g><defs><clipPath id="clip0_16_106"><rect width="1696" height="1168" fill="white"></rect></clipPath></defs></svg> 